inDegrees=yes
name=ik_S40_A12_T01
DataType=double
version=3
OpenSimVersion=4.3-2021-08-27-4bc7ad9
endheader
time	pelvis_tilt	pelvis_list	pelvis_rotation	pelvis_tx	pelvis_ty	pelvis_tz	hip_flexion_r	hip_adduction_r	hip_rotation_r	knee_angle_r	knee_angle_r_beta	ankle_angle_r	subtalar_angle_r	mtp_angle_r	hip_flexion_l	hip_adduction_l	hip_rotation_l	knee_angle_l	knee_angle_l_beta	ankle_angle_l	subtalar_angle_l	mtp_angle_l	lumbar_extension	lumbar_bending	lumbar_rotation	arm_flex_r	arm_add_r	arm_rot_r	elbow_flex_r	pro_sup_r	wrist_flex_r	wrist_dev_r	arm_flex_l	arm_add_l	arm_rot_l	elbow_flex_l	pro_sup_l	wrist_flex_l	wrist_dev_l
8.099999999999916	-3.923845677805723	5.777418082687537	37.200160168037	0	0.9399999999999999	0	36.84387360633217	-9.825833963503776	-9.490423673127342	42.87292208657038	0.7482736503616506	0	0	0	36.84387360633217	-9.825833963503776	-9.490423673127342	42.87292208657038	0.7482736503616506	0	0	0	0.4192321692646456	6.690112344664934	3.31384514007447	-2.416731844649706	-11.26430445873662	-4.250660251320951	3.266384138312533	86.18696415725351	0	0	105.1414577495222	-22.01730891242644	34.92643589809261	8.14174669014429	58.67979384230884	0	0
8.119999999999916	-3.696703390569604	5.496797098322247	37.52096452480347	0	0.9399999999999999	0	36.84895758568349	-9.826209220335373	-9.491127734085788	42.87809457284882	0.7483639272777236	0	0	0	36.84895758568349	-9.826209220335373	-9.491127734085788	42.87809457284882	0.7483639272777236	0	0	0	0.434259984465772	6.325414245065939	3.269986421061463	-2.426580071299178	-10.51903465124695	-4.428341930693118	3.256879413788741	85.9799077230043	0	0	104.272094501957	-22.7949536988225	34.77172449852485	10.63767347276318	59.3889256459329	0	0
8.139999999999915	-3.631176584310766	5.450314350725246	37.74636883378558	0	0.9399999999999999	0	36.85523918716905	-9.826671996175683	-9.491996814425926	42.8844878811277	0.7484755115572849	0	0	0	36.85523918716905	-9.826671996175683	-9.491996814425926	42.8844878811277	0.7484755115572849	0	0	0	0.4706237870483746	6.237297759867836	3.099460063182381	-2.478066363772298	-10.33150577031258	-4.437640662393242	3.202938459788665	85.90988142222767	0	0	102.8314203861252	-23.91189005164248	34.10371451099228	13.14366372138153	60.22354253686466	0	0
8.159999999999915	-3.502886685134353	5.34518855871563	38.0311570360345	0	0.9399999999999999	0	36.85997151158698	-9.827019694123623	-9.492650568118256	42.88930995754739	0.7485596726675914	0	0	0	36.85997151158698	-9.827019694123623	-9.492650568118256	42.88930995754739	0.7485596726675914	0	0	0	0.5180831487447659	6.066320086020274	2.943720371576233	-2.491059216193101	-10.03591662902036	-4.509181707683596	3.125930823007273	85.85188833631103	0	0	101.1168809494787	-25.03339994744797	33.63661924665602	15.79562074676079	60.65925784114511	0	0
8.179999999999914	-3.355718268120737	5.23751975433334	38.06287787811364	0	0.9399999999999999	0	36.86417506685156	-9.827324417097076	-9.493226263901716	42.8936433823344	0.7486353051980122	0	0	0	36.86417506685156	-9.827324417097076	-9.493226263901716	42.8936433823344	0.7486353051980122	0	0	0	0.5622077680031323	5.896001758290254	3.028013992792897	-2.579026977054028	-9.667504971563416	-4.638149244881959	3.022188367525301	86.18161610147267	0	0	100.9877344739447	-24.65625146900918	33.91638489750334	16.17508104829332	60.73844004149962	0	0
8.199999999999914	-3.243547650657159	5.127328235503069	38.36508761192088	0	0.9399999999999999	0	36.86887004819726	-9.827668541288997	-9.493874121598813	42.89842770894554	0.7487188074498674	0	0	0	36.86887004819726	-9.827668541288997	-9.493874121598813	42.89842770894554	0.7487188074498674	0	0	0	0.591128469349063	5.73206482617148	2.895312678440512	-2.574677084975269	-9.402150969574317	-4.724952812319285	2.962896274212006	86.31967219265987	0	0	99.11087269703224	-25.71465107656917	33.3054637547057	18.57998859069708	60.52115088336972	0	0
8.219999999999914	-3.170141578619676	5.078828513494843	39.03041090685178	0	0.9399999999999999	0	36.99751681739	-9.834135589765095	-9.507940579359524	43.06840254192188	0.7516854279308319	0	0	0	36.99751681739	-9.834135589765095	-9.507940579359524	43.06840254192188	0.7516854279308319	0	0	0	0.6495244008791506	5.630834877577134	2.29491436800084	-2.499325422765715	-9.298936820868258	-4.494026337956489	2.847062816155431	86.25816574109409	0	0	94.83396703941237	-28.30723465707692	30.0197204923039	23.47863918320595	61.77638074459735	0	0
8.239999999999913	-3.021885244704865	4.95444959588297	39.39292873243856	0	0.9399999999999999	0	37.09611301108554	-9.838883297792032	-9.518462555782703	43.20032021869858	0.753987825732167	0	0	0	37.09611301108554	-9.838883297792032	-9.518462555782703	43.20032021869858	0.753987825732167	0	0	0	0.695637080342372	5.436364062115261	2.117071981113663	-2.559984234495417	-8.916079317901358	-4.679691491753793	2.819483109934083	86.50517290856331	0	0	92.29514882257065	-29.24524830642847	27.74798752435199	25.34397636833405	63.22998971427012	0	0
8.259999999999913	-2.795496184540999	4.717144382072085	39.84585807251152	0	0.9399999999999999	0	37.18203983445007	-9.842974118088899	-9.527573486812766	43.31529630951503	0.7559945370779861	0	0	0	37.18203983445007	-9.842974118088899	-9.527573486812766	43.31529630951503	0.7559945370779861	0	0	0	0.7282104824115297	5.10582245748218	2.00376116339622	-2.56212879711701	-8.255136934182818	-4.847700349835196	2.773468317868617	86.56007322120043	0	0	89.95678290845098	-29.87794386497295	25.54476058938257	27.01420756678825	65.20162332897993	0	0
8.279999999999912	-2.640457207237034	4.541036468106451	40.24958567886289	0	0.9399999999999999	0	37.27355464484083	-9.847259304427112	-9.537190531575517	43.43782782819276	0.7581331155163814	0	0	0	37.27355464484083	-9.847259304427112	-9.537190531575517	43.43782782819276	0.7581331155163814	0	0	0	0.7438896848651249	4.8662087742167	1.849142747559414	-2.572009114330409	-7.775272423455497	-5.097601916229242	2.731145486803504	86.7594061591175	0	0	87.37432161649258	-30.56929229946999	22.92931312115364	28.45067461442042	67.46518605042031	0	0
8.299999999999912	-2.581798004333376	4.449650812723118	40.64351789038627	0	0.9399999999999999	0	37.36655807937874	-9.851551564047391	-9.546886154826931	43.56243174084542	0.7603078640530377	0	0	0	37.36655807937874	-9.851551564047391	-9.546886154826931	43.56243174084542	0.7603078640530377	0	0	0	0.7494277126598422	4.744894719242583	1.561306495791325	-2.468155623382846	-7.44184617115912	-4.946513757766791	2.646049281637594	86.59630036255398	0	0	84.44379460524878	-31.45840552653511	19.75994081784174	29.76826018204283	69.89970253795809	0	0
8.319999999999911	-2.433585726169536	4.245660501900762	41.1131876312355	0	0.9399999999999999	0	37.45100840242802	-9.855398384175325	-9.555627025866784	43.67555046120449	0.7622821581689463	0	0	0	37.45100840242802	-9.855398384175325	-9.555627025866784	43.67555046120449	0.7622821581689463	0	0	0	0.7416476324669345	4.483236515508399	1.348094090112815	-2.325072641116796	-6.867134700388812	-5.221393281050085	2.478280402603263	86.8307554386557	0	0	81.50013865700888	-32.23980611117639	16.51596439258539	30.84630914070114	72.81694964824453	0	0
8.339999999999911	-2.286635246477029	4.042143131902717	41.61710459341005	0	0.9399999999999999	0	37.53921173373647	-9.859324963741376	-9.564639874256521	43.79430665189541	0.764354844703629	0	0	0	37.53921173373647	-9.859324963741376	-9.564639874256521	43.79430665189541	0.764354844703629	0	0	0	0.7386370632718725	4.221499105571851	1.107417973729508	-2.198791490506387	-6.365543477343823	-5.590955416492378	2.298261831737544	87.18832536201717	0	0	78.33799509453463	-33.06952188219037	12.85855439757023	33.00352469246421	75.5425140363464	0	0
8.359999999999911	-2.240420647107425	3.967047774352934	42.08413070301818	0	0.9399999999999999	0	37.6232052810223	-9.863022460079037	-9.573170981316839	43.90721685720303	0.7663254995453498	0	0	0	37.6232052810223	-9.863022460079037	-9.573170981316839	43.90721685720303	0.7663254995453498	0	0	0	0.7423456877372759	4.120094768141894	0.8137252934014292	-2.128871761951665	-6.228134410692292	-5.800382329253763	2.168004417966374	87.48344433970263	0	0	74.47957425515968	-33.73824879192429	8.841670683989662	34.11920499418186	78.28689731858209	0	0
